<?xml version="1.0" encoding="utf-8"?>
<!-- Generator: Adobe Illustrator 16.0.0, SVG Export Plug-In . SVG Version: 6.00 Build 0)  -->
<!DOCTYPE svg PUBLIC "-//W3C//DTD SVG 1.1//EN" "http://www.w3.org/Graphics/SVG/1.1/DTD/svg11.dtd">
<svg version="1.1" id="Layer_1" xmlns="http://www.w3.org/2000/svg" xmlns:xlink="http://www.w3.org/1999/xlink" x="0px" y="0px"
	 width="64px" height="64px" viewBox="0 0 64 64" enable-background="new 0 0 64 64" xml:space="preserve">
<line fill="none" stroke="#000000" stroke-width="2" stroke-linecap="round" stroke-miterlimit="10" x1="3" y1="2" x2="3" y2="61"/>
<line fill="none" stroke="#000000" stroke-width="2" stroke-linecap="round" stroke-miterlimit="10" x1="3" y1="61" x2="62" y2="61"/>
<g id="g2485">
	<path id="path2487" fill="none" stroke="#000000" stroke-width="2" stroke-linecap="round" stroke-linejoin="round" d="M3,33.125
		l0.51-1.417l0.566-1.417l0.51-1.352l0.51-1.353l0.51-1.288l0.566-1.224l0.51-1.159l0.51-1.094l0.51-0.966l0.566-0.837l0.51-0.773
		l0.51-0.644l0.566-0.579l0.51-0.387l0.51-0.257l0.51-0.129h0.566l0.51,0.129l0.51,0.257l0.51,0.387l0.566,0.579l0.51,0.644
		l0.51,0.773l0.566,0.837l0.51,0.966l0.51,1.094l0.51,1.159l0.567,1.224l0.51,1.288l0.51,1.353l0.51,1.352l1.076,2.833l0.509,1.417
		l0.566,1.416l0.51,1.352l0.51,1.354l0.509,1.287l0.566,1.224l0.51,1.159l0.51,1.095l0.51,0.966l0.566,0.837l0.51,0.773l0.509,0.644
		l0.567,0.58l0.51,0.386l0.51,0.258L28.717,48h0.567l0.51-0.129l0.51-0.258l0.509-0.386l0.567-0.58l0.51-0.644l0.51-0.773
		l0.566-0.837l0.509-0.966l0.511-1.095l0.51-1.159l0.566-1.224l0.51-1.287l0.509-1.354l0.511-1.352l0.566-1.416l0.51-1.417
		l0.51-1.417l0.566-1.417l0.51-1.352l0.51-1.353l0.51-1.288l0.566-1.224l0.51-1.159l0.51-1.094l0.51-0.966l0.567-0.837l0.509-0.773
		l0.51-0.644l0.566-0.579l0.51-0.387l0.511-0.257l0.51-0.129h0.566l0.509,0.129l0.511,0.257l0.51,0.387l0.566,0.579l0.51,0.644
		l0.51,0.773l0.566,0.837l0.51,0.966l0.51,1.094l0.51,1.159l0.566,1.224l0.51,1.288l0.51,1.353l0.51,1.352l0.566,1.417L55,33.125"/>
</g>
<path fill="none" stroke="#000000" stroke-width="2" stroke-linecap="round" stroke-miterlimit="10" d="M3,61"/>
<path fill="none" stroke="#000000" stroke-width="2" stroke-linecap="round" stroke-miterlimit="10" d="M3,2"/>
</svg>
