<?xml version="1.0" encoding="utf-8"?>
<!-- Generator: Adobe Illustrator 16.0.4, SVG Export Plug-In . SVG Version: 6.00 Build 0)  -->
<!DOCTYPE svg PUBLIC "-//W3C//DTD SVG 1.1//EN" "http://www.w3.org/Graphics/SVG/1.1/DTD/svg11.dtd">
<svg version="1.1" id="Layer_1" xmlns="http://www.w3.org/2000/svg" xmlns:xlink="http://www.w3.org/1999/xlink" x="0px" y="0px"
	 width="159.298px" height="100px" viewBox="0 0 159.298 100" enable-background="new 0 0 159.298 100" xml:space="preserve">
<g>
	<path fill="none" d="M79.644,1.425c1.228-0.304,2.482-0.574,3.757-0.808c-2.582-0.157-4.926-0.157-7.508,0
		C77.167,0.851,78.42,1.12,79.644,1.425z"/>
	<path fill="none" d="M79.643,2.455C56.13,8.294,37.829,26.479,31.84,49.96c5.988,23.468,24.289,41.646,47.802,47.485l0.002-0.001
		l0.002,0.001c23.513-5.837,41.812-24.015,47.803-47.485c-5.99-23.483-24.291-41.669-47.804-47.505H79.643L79.643,2.455z"/>
	<path fill="none" d="M79.644,98.476c-1.22,0.308-2.47,0.579-3.767,0.816c2.596,0.158,4.942,0.158,7.538,0
		C82.119,99.055,80.868,98.783,79.644,98.476z"/>
	<path fill="#65B870" d="M146.414,33.63c0,5.497-0.678,10.99-2.014,16.33c1.336,5.319,2.014,10.803,2.014,16.3
		c0,3.339-0.25,6.626-0.762,9.999c6.476-7.618,11.179-16.673,13.646-26.299c-2.467-9.641-7.171-18.7-13.647-26.311
		C146.158,26.996,146.414,30.346,146.414,33.63z"/>
	<path fill="#55A4C7" d="M143.852,47.919c1.036-4.692,1.562-9.489,1.562-14.29c0-3.747-0.342-7.582-1.01-11.4
		c-5.494-6.095-11.963-11.021-19.232-14.686c1.946,4.581,3.377,9.359,4.247,14.229C136.137,29.287,141.102,38.288,143.852,47.919z"
		/>
	<path fill="#A7CE5B" d="M143.853,51.995c-2.751,9.62-7.716,18.619-14.435,26.142c-0.874,4.872-2.304,9.647-4.248,14.222
		c7.25-3.647,13.72-8.571,19.233-14.679c0.677-3.879,1.01-7.616,1.01-11.42C145.414,61.46,144.888,56.671,143.853,51.995z"/>
	<path fill="#67B777" d="M129.731,23.649c0.507,3.347,0.763,6.697,0.763,9.981c0,5.497-0.678,10.99-2.014,16.33
		c1.336,5.319,2.014,10.803,2.014,16.3c0,3.339-0.25,6.626-0.762,9.999c6.479-7.624,11.179-16.679,13.637-26.299
		C140.912,40.324,136.212,31.266,129.731,23.649z"/>
	<path fill="#4F58A7" d="M127.93,47.927c1.037-4.694,1.563-9.494,1.563-14.297c0-3.748-0.342-7.583-1.01-11.4
		c-10.629-11.787-25.14-19.325-40.883-21.234c-1.996,0.238-3.967,0.565-5.882,0.977C104.111,8.204,121.566,25.561,127.93,47.927z"/>
	<path fill="#F6E770" d="M128.484,77.68c0.677-3.879,1.01-7.616,1.01-11.42c0-4.803-0.526-9.593-1.562-14.271
		c-6.364,22.358-23.823,39.713-46.221,45.941c1.861,0.403,3.807,0.728,5.893,0.984C103.316,97.019,117.825,89.479,128.484,77.68z"/>
	<path fill="#505DAA" d="M91.775,0.619c13.884,2.558,26.619,9.463,36.36,19.755c-0.949-4.638-2.41-9.182-4.353-13.532
		C114.939,2.633,105.446,0.5,95.564,0.5C94.335,0.5,93.079,0.54,91.775,0.619z"/>
	<path fill="#E9BF64" d="M123.783,93.058c1.939-4.344,3.4-8.884,4.352-13.523c-9.763,10.302-22.493,17.207-36.351,19.757
		c1.302,0.08,2.556,0.119,3.78,0.119C105.432,99.41,114.925,97.273,123.783,93.058z"/>
	<path fill="#633C97" d="M30.814,22.229c-0.668,3.818-1.01,7.659-1.01,11.42c0,4.811,0.523,9.604,1.554,14.276
		c6.364-22.364,23.82-39.722,46.213-45.955c-1.911-0.411-3.882-0.738-5.885-0.976C55.951,2.903,41.444,10.442,30.814,22.229z"/>
	<path fill="#E6935A" d="M31.357,51.991c-1.031,4.656-1.553,9.446-1.553,14.269c0,3.804,0.333,7.542,1.01,11.421
		c10.659,11.8,25.165,19.338,40.871,21.234c2.091-0.256,4.038-0.581,5.896-0.983C55.182,91.701,37.721,74.348,31.357,51.991z"/>
	<path fill="#4E4A9E" d="M35.505,6.842c-1.935,4.332-3.393,8.875-4.343,13.533C40.904,10.081,53.634,3.176,67.513,0.619
		C66.209,0.54,64.953,0.5,63.724,0.5C53.841,0.5,44.348,2.633,35.505,6.842z"/>
	<path fill="#E58A5D" d="M67.505,99.291c-13.851-2.55-26.58-9.455-36.343-19.757c0.954,4.657,2.411,9.198,4.343,13.523
		c8.857,4.216,18.35,6.353,28.219,6.353C64.949,99.41,66.203,99.371,67.505,99.291z"/>
	<path fill="#933A70" d="M13.874,33.63c0,4.801,0.525,9.598,1.562,14.289c2.751-9.637,7.72-18.638,14.442-26.146
		c0.874-4.89,2.3-9.667,4.238-14.229c-7.259,3.665-13.729,8.591-19.232,14.686C14.216,26.045,13.874,29.88,13.874,33.63z"/>
	<path fill="#E96650" d="M15.436,51.996c-1.036,4.675-1.562,9.463-1.562,14.264c0,3.806,0.333,7.544,1.01,11.419
		c5.523,6.108,11.993,11.031,19.233,14.679c-1.934-4.555-3.361-9.329-4.238-14.22C23.156,70.621,18.188,61.622,15.436,51.996z"/>
	<path fill="#E14460" d="M29.566,76.261c-0.512-3.373-0.762-6.661-0.762-10.001c0-5.523,0.674-11.007,2.004-16.3
		c-1.33-5.313-2.004-10.8-2.004-16.31c0-3.296,0.256-6.654,0.763-10.003c-6.486,7.612-11.189,16.67-13.647,26.313
		C18.379,59.588,23.081,68.643,29.566,76.261z"/>
	<path fill="#E4425A" d="M14.888,49.96c-1.336-5.339-2.014-10.832-2.014-16.33c0-3.286,0.256-6.636,0.762-9.981
		C7.156,31.265,2.457,40.323,0,49.96c2.458,9.621,7.158,18.678,13.637,26.3c-0.506-3.354-0.763-6.71-0.763-10
		C12.874,60.762,13.552,55.278,14.888,49.96z"/>
</g>
</svg>
