<?xml version="1.0" encoding="UTF-8" standalone="no"?>
<!-- Generator: Adobe Illustrator 16.0.4, SVG Export Plug-In . SVG Version: 6.00 Build 0)  -->

<svg
   xmlns:dc="http://purl.org/dc/elements/1.1/"
   xmlns:cc="http://creativecommons.org/ns#"
   xmlns:rdf="http://www.w3.org/1999/02/22-rdf-syntax-ns#"
   xmlns:svg="http://www.w3.org/2000/svg"
   xmlns="http://www.w3.org/2000/svg"
   xmlns:sodipodi="http://sodipodi.sourceforge.net/DTD/sodipodi-0.dtd"
   xmlns:inkscape="http://www.inkscape.org/namespaces/inkscape"
   version="1.1"
   id="Layer_1"
   x="0px"
   y="0px"
   width="159.297px"
   height="100px"
   viewBox="0 0 159.297 100"
   enable-background="new 0 0 159.297 100"
   xml:space="preserve"
   inkscape:version="0.48.5 r10040"
   sodipodi:docname="Iris_logo_v2.svg"><metadata
   id="metadata3537"><rdf:RDF><cc:Work
       rdf:about=""><dc:format>image/svg+xml</dc:format><dc:type
         rdf:resource="http://purl.org/dc/dcmitype/StillImage" /><dc:title></dc:title></cc:Work></rdf:RDF></metadata><defs
   id="defs3535" /><sodipodi:namedview
   pagecolor="#ffffff"
   bordercolor="#666666"
   borderopacity="1"
   objecttolerance="10"
   gridtolerance="10"
   guidetolerance="10"
   inkscape:pageopacity="0"
   inkscape:pageshadow="2"
   inkscape:window-width="1278"
   inkscape:window-height="1408"
   id="namedview3533"
   showgrid="false"
   inkscape:zoom="7.0183369"
   inkscape:cx="79.648499"
   inkscape:cy="50"
   inkscape:window-x="1913"
   inkscape:window-y="0"
   inkscape:window-maximized="0"
   inkscape:current-layer="Layer_1" />
<g
   id="Layer_1_1_"
   display="none">
	<g
   display="inline"
   id="g3264">
		<g
   id="g3266">
			<g
   id="XMLID_2_">
				<g
   id="g3269">
					<path
   fill="#ABB7B7"
   d="M54.399,50.59c-0.22,1.602-0.34,3.24-0.38,4.93c-0.02,0.451-0.02,0.9-0.02,1.352       c-0.08,10.949,3.18,23.449,10.13,35.529c-13.23-6.939-23.81-18.221-29.87-31.959c3.31-5.73,7.08-10.852,11.11-15.3       c1.27-1.4,2.57-2.73,3.89-3.99c0.37-0.36,0.75-0.71,1.12-1.05c1-0.91,2.01-1.79,3.02-2.62c0-0.01,0.01-0.01,0.01-0.01       c0.51-0.41,1.01-0.81,1.52-1.2c0.45-0.35,0.91-0.7,1.36-1.03c0.06-0.05,0.13-0.1,0.2-0.15c0.44-0.31,0.88-0.62,1.31-0.92       c0.62-0.44,1.25-0.85,1.87-1.25c0.49-0.31,0.98-0.61,1.48-0.9c0.44-0.27,0.89-0.53,1.34-0.77c0.3-0.17,0.59-0.33,0.89-0.49       c0.63-0.34,1.25-0.65,1.88-0.95c0.37-0.18,0.75-0.36,1.12-0.52c0.36-0.16,0.71-0.31,1.06-0.46       c-7.36,4.25-11.71,12.08-13.01,21.71c-0.01,0.08-0.02,0.16-0.03,0.24C54.399,50.721,54.399,50.65,54.399,50.59z"
   id="path3271" />
					<path
   fill="#63B971"
   d="M144.229,22.09c7.05,7.85,12.26,17.4,14.939,27.96c-2.681,10.54-7.891,20.091-14.939,27.95       c0.67-3.79,1.04-7.66,1.04-11.65c0-5.629-0.71-11.09-2.03-16.3c1.32-5.23,2.03-10.69,2.03-16.33       C145.269,29.76,144.899,25.87,144.229,22.09z"
   id="path3273" />
					<path
   fill="#53A4C6"
   d="M144.229,22.09c0.67,3.78,1.04,7.67,1.04,11.63c0,5.64-0.71,11.1-2.03,16.33       c-2.67-10.56-7.88-20.11-14.93-27.96c-0.96-5.44-2.59-10.64-4.79-15.53C131.418,10.34,138.45,15.65,144.229,22.09z"
   id="path3275" />
					<path
   fill="#A7CF5C"
   d="M145.269,66.35c0,3.99-0.37,7.86-1.04,11.65c-5.779,6.43-12.811,11.75-20.71,15.52       c2.2-4.89,3.83-10.1,4.79-15.52c7.05-7.859,12.26-17.41,14.93-27.95C144.559,55.26,145.269,60.721,145.269,66.35z"
   id="path3277" />
					<path
   fill="#65B877"
   d="M128.309,22.09c7.05,7.85,12.26,17.4,14.93,27.96c-2.67,10.54-7.88,20.091-14.93,27.95       c0.67-3.79,1.04-7.66,1.04-11.65c0-5.568-0.7-10.979-1.99-16.14c0.011-0.04,0.021-0.09,0.03-0.13       c-0.01-0.05-0.03-0.1-0.04-0.15c1.3-5.19,2-10.62,2-16.21C129.349,29.76,128.979,25.87,128.309,22.09z"
   id="path3279" />
					<path
   fill="#4E59A7"
   d="M128.309,22.09c0.67,3.78,1.04,7.67,1.04,11.63c0,5.59-0.7,11.02-2,16.21       c-0.892-3.52-2.07-6.92-3.511-10.18c-0.01,0.02-0.021,0.04-0.039,0.06c0-0.02,0-0.03-0.012-0.04       c0.012-0.02,0.021-0.03,0.03-0.05l-0.03-0.07c-6.029-13.8-16.539-25.05-29.898-31.98c0,0.01,0.01,0.01,0.01,0.02       c-0.09-0.06-0.189-0.11-0.29-0.15c-0.569-0.3-1.14-0.58-1.72-0.86c-1.16-0.57-2.34-1.1-3.54-1.58       c-0.601-0.26-1.2-0.5-1.812-0.71c-0.6-0.25-1.209-0.47-1.83-0.66c-1.858-0.66-3.77-1.22-5.708-1.7       c2.6-0.65,5.259-1.13,7.958-1.45C103.319,2.55,117.849,10.44,128.309,22.09z"
   id="path3281" />
					<path
   fill="#F3E970"
   d="M129.349,66.35c0,3.99-0.37,7.86-1.04,11.65c-10.46,11.63-24.99,19.55-41.352,21.51       c-2.648-0.318-5.26-0.779-7.81-1.42c10.17-2.529,19.3-7.311,27.011-13.939v-0.08c0.021-0.01,0.029-0.021,0.039-0.039h0.01       h0.131c10.141-8.711,17.609-20.45,21.021-33.82C128.649,55.37,129.349,60.779,129.349,66.35z"
   id="path3283" />
					<path
   fill="#E4425A"
   d="M127.349,49.93c0.01,0.05,0.03,0.1,0.04,0.15c-0.01,0.04-0.021,0.09-0.03,0.13       c-0.01-0.05-0.03-0.11-0.04-0.16C127.329,50.01,127.338,49.97,127.349,49.93z"
   id="path3285" />
					<path
   fill="#ABB7B7"
   d="M123.799,39.81c1.449,3.28,2.619,6.7,3.52,10.24c-3.4,13.44-10.91,25.24-21.109,33.979h-0.01       c-16.49,0-31.071-4.84-40.521-12.5c3.39,1.951,7.22,2.881,11.3,2.881c4.67,0,9.68-1.221,14.721-3.521       c0.369-0.148,0.75-0.33,1.119-0.52c0.631-0.29,1.25-0.61,1.881-0.95l0.891-0.479c0.449-0.25,0.89-0.51,1.34-0.779       c0.488-0.28,0.988-0.59,1.479-0.9l0.291-0.199c0.449-0.279,0.899-0.569,1.35-0.891c3.109-2.109,6.171-4.62,9.119-7.479       c0.08-0.08,0.15-0.15,0.222-0.211c0.42-0.41,0.84-0.83,1.25-1.25c0.489-0.489,0.96-0.989,1.438-1.51       c0.291-0.311,0.57-0.621,0.86-0.939c0.89-0.98,1.771-1.99,2.61-3.04C118.529,48.12,121.309,44.13,123.799,39.81z"
   id="path3287" />
					<path
   fill="#4F5EAA"
   d="M123.519,6.56c2.2,4.89,3.83,10.09,4.79,15.53c-10.46-11.65-24.99-19.54-41.352-21.51       c2.61-0.3,5.271-0.49,7.961-0.49C105.168,0.09,114.859,2.41,123.519,6.56z"
   id="path3289" />
					<path
   fill="#E8BE63"
   d="M128.309,78c-0.96,5.42-2.59,10.63-4.79,15.52c-8.66,4.15-18.351,6.48-28.601,6.48       c-2.689,0-5.351-0.189-7.961-0.49C103.319,97.55,117.849,89.63,128.309,78z"
   id="path3291" />
					<path
   fill="#BDC3C7"
   d="M103.679,49.59c0.278-2.09,0.409-4.27,0.399-6.52c0-0.27,0-0.53-0.011-0.8       c-0.12-10.73-3.409-22.86-10.17-34.58c13.25,6.97,23.84,18.29,29.89,32.08c-2.51,4.35-5.279,8.35-8.238,11.97       c-0.86,1.039-1.73,2.06-2.61,3.039c-0.28,0.32-0.569,0.631-0.86,0.939c-0.47,0.512-0.959,1.021-1.438,1.512       c-0.41,0.42-0.83,0.828-1.25,1.25c-0.07,0.06-0.142,0.129-0.222,0.209c-2.948,2.851-6.01,5.351-9.119,7.479       c-0.449,0.3-0.899,0.601-1.35,0.89l-0.291,0.2c-0.49,0.312-0.99,0.61-1.479,0.9c-0.45,0.271-0.891,0.53-1.34,0.78L94.7,69.418       c-0.631,0.34-1.25,0.65-1.881,0.95c-0.369,0.18-0.75,0.36-1.119,0.521c-0.359,0.159-0.721,0.319-1.07,0.459       c7.369-4.25,11.711-12.08,13.011-21.7c0.01-0.1,0.028-0.21,0.04-0.31C103.679,49.42,103.679,49.51,103.679,49.59z"
   id="path3293" />
					<path
   fill="#6C7A89"
   d="M106.159,84.04v0.03c-7.709,6.609-16.97,11.479-27.16,13.979c-5.12-1.26-10.02-3.119-14.59-5.5       c-6.95-12.068-10.41-24.689-10.41-35.68c0-0.45,0-0.9,0.02-1.352c0.05-1.619,0.18-3.199,0.38-4.74       c0.07,7.912,4.13,14.99,11.08,20.65l0.06,0.051C74.989,79.18,89.599,84.04,106.159,84.04z"
   id="path3295" />
					<path
   fill="#D2D7D3"
   d="M104.069,42.27c0.01,0.27,0.01,0.53,0.01,0.8c-0.01,2.15-0.14,4.25-0.398,6.27       c-0.09-7.88-4.15-14.93-11.08-20.59L92.54,28.7c-9.449-7.69-24.071-12.56-40.621-12.56v-0.11       c7.74-6.65,16.91-11.44,27.14-13.96c1.92,0.47,3.8,1.03,5.648,1.66c0.61,0.21,1.222,0.43,1.83,0.66       c0.61,0.23,1.211,0.47,1.812,0.71c1.2,0.5,2.38,1.02,3.54,1.58c0.58,0.28,1.148,0.56,1.72,0.86       C100.379,19.26,103.859,31.5,104.069,42.27z"
   id="path3297" />
					<path
   fill="#BDC3C7"
   d="M92.359,28.63c-7.271-4.17-16.55-3.63-25.98,0.66c-0.37,0.15-0.75,0.33-1.12,0.52       c-0.62,0.29-1.25,0.61-1.88,0.95c-0.3,0.16-0.59,0.32-0.89,0.49c-0.45,0.24-0.89,0.5-1.34,0.77c-0.49,0.28-0.99,0.59-1.48,0.9       c-0.62,0.4-1.25,0.81-1.87,1.25c-0.44,0.29-0.88,0.6-1.31,0.92c-0.07,0.05-0.14,0.1-0.2,0.15c-0.46,0.33-0.91,0.67-1.36,1.03       c-0.51,0.38-1.02,0.78-1.52,1.2c0,0-0.01,0-0.01,0.01c-1.02,0.83-2.02,1.7-3.02,2.62c-0.37,0.34-0.75,0.69-1.12,1.05       c-1.32,1.26-2.62,2.59-3.89,3.99c-4.07,4.45-7.84,9.57-11.12,15.26c-0.26-0.58-0.51-1.16-0.75-1.75       c-1.12-2.771-2.07-5.631-2.81-8.582c0.1-0.41,0.21-0.82,0.32-1.22c0.05-0.17,0.09-0.34,0.14-0.51       c0.07-0.25,0.14-0.49,0.21-0.74c0.13-0.41,0.25-0.82,0.38-1.23c0.13-0.41,0.27-0.82,0.4-1.22c0.28-0.81,0.57-1.62,0.87-2.42       c3.97-10.36,10.47-19.47,18.73-26.58h0.12C68.349,16.15,82.909,20.98,92.359,28.63z"
   id="path3299" />
					<path
   fill="#633D98"
   d="M71.039,0.58c2.71,0.32,5.37,0.8,7.96,1.45c-21.17,5.21-38.33,20.6-45.99,40.7       c-0.32,0.8-0.61,1.6-0.87,2.42c-0.15,0.4-0.28,0.81-0.4,1.22c-0.13,0.41-0.25,0.82-0.38,1.23c-0.08,0.24-0.15,0.49-0.21,0.74       c-0.05,0.17-0.09,0.34-0.14,0.51c-0.12,0.4-0.23,0.8-0.33,1.2c-1.32-5.23-2.02-10.69-2.02-16.31c0-3.98,0.37-7.87,1.04-11.65       C40.159,10.44,54.679,2.55,71.039,0.58z"
   id="path3301" />
					<path
   fill="#E7935A"
   d="M78.869,98.08c-2.55,0.65-5.16,1.109-7.83,1.43c-16.36-1.96-30.88-9.88-41.34-21.51       c-0.67-3.79-1.04-7.66-1.04-11.65c0-5.629,0.7-11.09,2.02-16.3c0,0.01,0,0.01,0.01,0.02c0,0.01-0.01,0.02-0.01,0.03       c0.75,2.94,1.69,5.791,2.82,8.55c0.23,0.6,0.48,1.188,0.74,1.77c-0.01,0-0.01,0.01-0.01,0.01h0.01v-0.01       c0-0.01,0-0.01,0.01-0.02c0,0.02,0,0.029,0.01,0.039c0,0.011-0.01,0.011-0.01,0.021l0.03,0.069       c6.04,13.801,16.54,25.051,29.91,31.979c-0.02-0.04-0.04-0.069-0.06-0.108c0.09,0.06,0.18,0.1,0.28,0.148       c0.02,0.03,0.03,0.061,0.05,0.09C68.989,94.99,73.809,96.82,78.869,98.08z"
   id="path3303" />
					<path
   fill="#4E4B9F"
   d="M63.079,0.09c2.69,0,5.35,0.19,7.96,0.49c-16.36,1.97-30.88,9.86-41.34,21.51       c0.96-5.44,2.58-10.64,4.78-15.53C43.139,2.41,52.839,0.09,63.079,0.09z"
   id="path3305" />
					<path
   fill="#E68A5C"
   d="M71.039,99.51c-2.61,0.301-5.27,0.49-7.96,0.49c-10.24,0-19.94-2.33-28.6-6.48       c-2.2-4.89-3.82-10.1-4.78-15.52C40.159,89.63,54.679,97.55,71.039,99.51z"
   id="path3307" />
					<path
   fill="#963A71"
   d="M34.479,6.56c-2.2,4.89-3.82,10.09-4.78,15.53c-7.06,7.85-12.27,17.4-14.94,27.96       c-1.32-5.23-2.03-10.69-2.03-16.33c0-3.96,0.37-7.85,1.04-11.63C19.559,15.65,26.589,10.34,34.479,6.56z"
   id="path3309" />
					<path
   fill="#EB664F"
   d="M29.699,78c0.96,5.42,2.58,10.63,4.78,15.52c-7.89-3.77-14.92-9.09-20.71-15.52       c-0.67-3.79-1.04-7.66-1.04-11.65c0-5.629,0.71-11.09,2.03-16.3C17.429,60.59,22.639,70.141,29.699,78z"
   id="path3311" />
					<path
   fill="#E34461"
   d="M28.659,33.74c0,5.62,0.7,11.08,2.02,16.31c-1.32,5.21-2.02,10.671-2.02,16.3       c0,3.99,0.37,7.86,1.04,11.65c-7.06-7.859-12.27-17.41-14.94-27.95c2.67-10.56,7.88-20.11,14.94-27.96       C29.029,25.87,28.659,29.76,28.659,33.74z"
   id="path3313" />
					<path
   fill="#E6425A"
   d="M12.729,33.72c0,5.64,0.71,11.1,2.03,16.33c-1.32,5.21-2.03,10.671-2.03,16.3       c0,3.99,0.37,7.86,1.04,11.65c-7.05-7.859-12.26-17.41-14.93-27.95c2.67-10.56,7.88-20.11,14.93-27.96       C13.099,25.87,12.729,29.76,12.729,33.72z"
   id="path3315" />
				</g>
				<g
   id="g3317">
					<path
   fill="none"
   stroke="#5A5B5B"
   stroke-miterlimit="10"
   d="M14.759,50.05c-1.32-5.23-2.03-10.69-2.03-16.33       c0-3.96,0.37-7.85,1.04-11.63c-7.05,7.85-12.26,17.4-14.93,27.96c2.67,10.54,7.88,20.091,14.93,27.95       c-0.67-3.79-1.04-7.66-1.04-11.65C12.729,60.721,13.439,55.26,14.759,50.05z"
   id="path3319" />
					<path
   fill="none"
   stroke="#5A5B5B"
   stroke-miterlimit="10"
   d="M13.769,22.09c5.79-6.44,12.82-11.75,20.71-15.53"
   id="path3321" />
					<path
   fill="none"
   stroke="#5A5B5B"
   stroke-miterlimit="10"
   d="M123.519,6.56c7.899,3.78,14.931,9.09,20.71,15.53"
   id="path3323" />
					<path
   fill="none"
   stroke="#5A5B5B"
   stroke-miterlimit="10"
   d="M71.039,0.58c-2.61-0.3-5.27-0.49-7.96-0.49       c-10.24,0-19.94,2.32-28.6,6.47c-2.2,4.89-3.82,10.09-4.78,15.53C40.159,10.44,54.679,2.55,71.039,0.58z"
   id="path3325" />
					<path
   fill="none"
   stroke="#5A5B5B"
   stroke-miterlimit="10"
   d="M143.239,50.05c1.32,5.21,2.03,10.671,2.03,16.3       c0,3.99-0.37,7.86-1.04,11.65c7.05-7.859,12.26-17.41,14.939-27.95c-2.681-10.56-7.891-20.11-14.939-27.96       c0.67,3.78,1.04,7.67,1.04,11.63C145.269,39.36,144.559,44.82,143.239,50.05z"
   id="path3327" />
					<path
   fill="none"
   stroke="#5A5B5B"
   stroke-miterlimit="10"
   d="M86.958,0.58c16.36,1.97,30.892,9.86,41.352,21.51       c-0.96-5.44-2.59-10.64-4.79-15.53c-8.66-4.15-18.351-6.47-28.601-6.47C92.229,0.09,89.569,0.28,86.958,0.58z"
   id="path3329" />
					<path
   fill="none"
   stroke="#5A5B5B"
   stroke-miterlimit="10"
   d="M34.479,93.52c-7.89-3.77-14.92-9.09-20.71-15.52"
   id="path3331" />
					<path
   fill="none"
   stroke="#5A5B5B"
   stroke-miterlimit="10"
   d="M86.958,0.58c-2.608-0.3-5.26-0.49-7.958-0.49       c-2.7,0-5.35,0.19-7.96,0.49c2.71,0.32,5.37,0.8,7.96,1.45C81.599,1.38,84.258,0.9,86.958,0.58z"
   id="path3333" />
					<path
   fill="none"
   stroke="#5A5B5B"
   stroke-miterlimit="10"
   d="M30.679,50.05c-1.32-5.23-2.02-10.69-2.02-16.31       c0-3.98,0.37-7.87,1.04-11.65c-7.06,7.85-12.27,17.4-14.94,27.96c2.67,10.54,7.88,20.091,14.94,27.95       c-0.67-3.79-1.04-7.66-1.04-11.65C28.659,60.721,29.359,55.26,30.679,50.05z"
   id="path3335" />
					<path
   fill="none"
   stroke="#5A5B5B"
   stroke-miterlimit="10"
   d="M144.229,78c-5.779,6.43-12.811,11.75-20.71,15.52"
   id="path3337" />
					<path
   fill="none"
   stroke="#5A5B5B"
   stroke-miterlimit="10"
   d="M71.039,99.51c-16.36-1.96-30.88-9.88-41.34-21.51       c0.96,5.42,2.58,10.63,4.78,15.52c8.66,4.15,18.36,6.48,28.6,6.48C65.769,100,68.429,99.811,71.039,99.51z"
   id="path3339" />
					<path
   fill="none"
   stroke="#5A5B5B"
   stroke-miterlimit="10"
   d="M86.958,99.51c2.61,0.301,5.271,0.49,7.961,0.49       c10.25,0,19.939-2.33,28.601-6.48c2.2-4.89,3.83-10.1,4.79-15.52C117.849,89.63,103.319,97.55,86.958,99.51z"
   id="path3341" />
					<path
   fill="none"
   stroke="#5A5B5B"
   stroke-miterlimit="10"
   d="M127.319,50.05c0.01,0.05,0.03,0.11,0.04,0.16       c1.29,5.16,1.99,10.569,1.99,16.14c0,3.99-0.37,7.86-1.04,11.65c7.05-7.859,12.26-17.41,14.93-27.95       c-2.67-10.56-7.88-20.11-14.93-27.96c0.67,3.78,1.04,7.67,1.04,11.63c0,5.59-0.7,11.02-2,16.21       C127.338,49.97,127.329,50.01,127.319,50.05z"
   id="path3343" />
					<path
   fill="none"
   stroke="#5A5B5B"
   stroke-miterlimit="10"
   d="M71.039,99.51c2.61,0.301,5.26,0.49,7.96,0.49       c2.701,0,5.35-0.189,7.958-0.49c-2.648-0.318-5.26-0.779-7.81-1.42c-0.05-0.01-0.1-0.029-0.15-0.04       c-0.04,0.011-0.09,0.021-0.13,0.03C76.319,98.73,73.709,99.189,71.039,99.51z"
   id="path3345" />
					<path
   fill="none"
   stroke="#5A5B5B"
   stroke-miterlimit="10"
   d="M106.208,84.029c10.201-8.739,17.711-20.539,21.11-33.979       c-0.899-3.54-2.069-6.96-3.521-10.24c0-0.02,0-0.03-0.01-0.04c-6.051-13.79-16.641-25.11-29.891-32.08       c-0.09-0.06-0.189-0.11-0.29-0.15"
   id="path3347" />
					<path
   fill="none"
   stroke="#5A5B5B"
   stroke-miterlimit="10"
   d="M31.009,48.85c-0.12,0.4-0.23,0.8-0.33,1.2       c0,0.01,0,0.01,0.01,0.02c0.74,2.95,1.69,5.81,2.81,8.581c0.24,0.591,0.49,1.17,0.75,1.75c0,0.021,0,0.029,0.01,0.041       c6.06,13.738,16.64,25.02,29.87,31.959c0.09,0.061,0.18,0.101,0.28,0.149c4.57,2.38,9.47,4.24,14.59,5.5       c10.19-2.5,19.451-7.37,27.16-13.979c0.021-0.01,0.03-0.021,0.041-0.039"
   id="path3349" />
					<path
   fill="none"
   stroke="#5A5B5B"
   stroke-miterlimit="10"
   d="M31.359,47.6c-0.08,0.24-0.15,0.49-0.21,0.74"
   id="path3351" />
					<path
   fill="none"
   stroke="#5A5B5B"
   stroke-miterlimit="10"
   d="M91.889,6.68c-1.16-0.57-2.34-1.1-3.54-1.58       c-0.601-0.26-1.2-0.5-1.812-0.71c-0.6-0.25-1.209-0.47-1.83-0.66c-1.858-0.66-3.77-1.22-5.708-1.7       c-21.17,5.21-38.33,20.6-45.99,40.7c-0.32,0.8-0.61,1.6-0.87,2.42c-0.15,0.4-0.28,0.81-0.4,1.22"
   id="path3353" />
					<path
   fill="none"
   stroke="#000000"
   stroke-miterlimit="10"
   d="M63.379,30.76c0.63-0.34,1.26-0.66,1.88-0.95       c0.37-0.19,0.75-0.37,1.12-0.52c9.43-4.29,18.709-4.83,25.98-0.66"
   id="path3355" />
					<path
   fill="none"
   stroke="#000000"
   stroke-miterlimit="10"
   d="M59.669,32.92c0.49-0.31,0.98-0.61,1.48-0.9       c0.44-0.27,0.89-0.53,1.34-0.77"
   id="path3357" />
					<path
   fill="none"
   stroke="#000000"
   stroke-miterlimit="10"
   d="M56.489,35.09c0.44-0.31,0.88-0.62,1.31-0.92"
   id="path3359" />
					<path
   fill="none"
   stroke="#000000"
   stroke-miterlimit="10"
   d="M53.409,37.47c0.51-0.41,1.01-0.81,1.52-1.2       c0.45-0.35,0.91-0.7,1.36-1.03"
   id="path3361" />
					<path
   fill="none"
   stroke="#000000"
   stroke-miterlimit="10"
   d="M49.259,41.15c0.37-0.36,0.75-0.71,1.12-1.05       c1-0.91,2.01-1.79,3.02-2.62"
   id="path3363" />
					<path
   fill="none"
   stroke="#000000"
   stroke-miterlimit="10"
   d="M34.239,60.42c0-0.01,0-0.01,0.01-0.02       c3.28-5.69,7.05-10.812,11.12-15.26"
   id="path3365" />
					<path
   fill="none"
   stroke="#000000"
   stroke-miterlimit="10"
   d="M34.239,60.42v0.01h-0.01       C34.229,60.43,34.229,60.42,34.239,60.42z"
   id="path3367" />
					<path
   fill="none"
   stroke="#000000"
   stroke-miterlimit="10"
   d="M92.359,28.63c-9.45-7.65-24.01-12.48-40.5-12.48h-0.12       c-8.26,7.11-14.76,16.22-18.73,26.58c-0.3,0.8-0.59,1.61-0.87,2.42c-0.13,0.4-0.27,0.81-0.4,1.22       c-0.13,0.41-0.25,0.82-0.38,1.23c-0.07,0.25-0.14,0.49-0.21,0.74c-0.05,0.17-0.09,0.34-0.14,0.51       c-0.11,0.4-0.22,0.81-0.32,1.22c0,0.01-0.01,0.02-0.01,0.03c0.75,2.94,1.69,5.791,2.82,8.55c0.23,0.6,0.48,1.188,0.74,1.77"
   id="path3369" />
					<path
   fill="none"
   stroke="#000000"
   stroke-miterlimit="10"
   d="M92.359,28.63c0.021,0.01,0.04,0.02,0.06,0.03l0.062,0.06       C92.439,28.69,92.399,28.66,92.359,28.63z"
   id="path3371" />
					<path
   fill="none"
   stroke="#000000"
   stroke-linecap="round"
   stroke-miterlimit="10"
   d="M109.389,58.48       c0.42-0.41,0.84-0.83,1.25-1.25c0.49-0.49,0.96-0.99,1.439-1.512c0.289-0.31,0.569-0.619,0.859-0.939       c0.88-0.979,1.75-2,2.609-3.039c2.961-3.62,5.729-7.62,8.24-11.97c0.01-0.02,0.021-0.03,0.029-0.05l-0.029-0.07       c-6.029-13.8-16.541-25.05-29.899-31.98c0,0.01,0.01,0.01,0.01,0.02c6.761,11.72,10.05,23.85,10.17,34.58"
   id="path3373" />
					<path
   fill="none"
   stroke="#000000"
   stroke-linecap="round"
   stroke-miterlimit="10"
   d="M98.7,67.061       c0.449-0.279,0.899-0.569,1.35-0.891c3.109-2.109,6.171-4.62,9.119-7.479"
   id="path3375" />
					<path
   fill="none"
   stroke="#000000"
   stroke-linecap="round"
   stroke-miterlimit="10"
   d="M95.588,68.939       c0.449-0.25,0.891-0.51,1.341-0.779c0.489-0.28,0.989-0.59,1.479-0.9"
   id="path3377" />
					<path
   fill="none"
   stroke="#000000"
   stroke-linecap="round"
   stroke-miterlimit="10"
   d="M90.569,71.38       c0.021-0.01,0.04-0.021,0.061-0.03c0.351-0.14,0.711-0.3,1.07-0.459c0.369-0.16,0.75-0.341,1.119-0.521       c0.631-0.3,1.25-0.61,1.881-0.95"
   id="path3379" />
					<path
   fill="none"
   stroke="#000000"
   stroke-linecap="round"
   stroke-miterlimit="10"
   d="M104.079,43.07       c-0.01,2.15-0.14,4.25-0.398,6.27c-0.012,0.1-0.03,0.21-0.04,0.31c-1.3,9.62-5.642,17.45-13.011,21.7"
   id="path3381" />
					<path
   fill="none"
   stroke="#000000"
   stroke-miterlimit="10"
   d="M103.668,49.67l0.011-0.07v-0.01c0-0.08,0-0.17,0-0.25       c-0.091-7.88-4.15-14.93-11.08-20.59l-0.062-0.05c-9.449-7.69-24.07-12.56-40.62-12.56v-0.11       c7.74-6.65,16.91-11.44,27.14-13.96c1.92,0.47,3.8,1.03,5.649,1.66c0.609,0.21,1.221,0.43,1.83,0.66s1.209,0.47,1.811,0.71       c1.199,0.5,2.38,1.02,3.54,1.58c0.579,0.28,1.149,0.56,1.72,0.86c6.771,11.72,10.25,23.96,10.46,34.73       c0.011,0.27,0.011,0.53,0.011,0.8c0.01,2.25-0.121,4.43-0.399,6.52"
   id="path3383" />
					<path
   fill="none"
   stroke="#000000"
   stroke-miterlimit="10"
   d="M65.679,71.529c9.45,7.66,24.03,12.5,40.521,12.5h0.01h0.131       c10.14-8.709,17.609-20.449,21.02-33.819c0.01-0.04,0.021-0.09,0.03-0.13c-0.011-0.05-0.03-0.1-0.04-0.15       c-0.891-3.52-2.07-6.92-3.51-10.18c-0.012,0.02-0.021,0.04-0.041,0.06c-2.489,4.32-5.271,8.31-8.25,11.93       c-0.84,1.05-1.721,2.06-2.609,3.039c-0.279,0.32-0.57,0.631-0.859,0.939c-0.471,0.512-0.961,1.021-1.439,1.512       c-0.41,0.42-0.83,0.828-1.25,1.25c-0.07,0.06-0.141,0.129-0.221,0.209c-2.949,2.851-6.01,5.351-9.119,7.479       c-0.45,0.3-0.9,0.601-1.352,0.89l-0.289,0.2c-0.49,0.312-0.99,0.61-1.479,0.9c-0.45,0.271-0.892,0.53-1.341,0.78L94.7,69.418       c-0.63,0.34-1.25,0.66-1.88,0.95c-0.37,0.188-0.75,0.37-1.12,0.521c-5.039,2.301-10.05,3.521-14.72,3.521       C72.899,74.41,69.069,73.48,65.679,71.529c-0.01,0-0.01-0.01-0.02-0.01c-0.02-0.021-0.05-0.039-0.07-0.061"
   id="path3385" />
					<path
   fill="none"
   stroke="#000000"
   stroke-linecap="round"
   stroke-miterlimit="10"
   d="M67.509,28.8       c-0.02,0.01-0.05,0.02-0.07,0.03c-0.35,0.15-0.7,0.3-1.06,0.46c-0.37,0.16-0.75,0.34-1.12,0.52c-0.63,0.3-1.25,0.61-1.88,0.95       c-0.3,0.16-0.59,0.32-0.89,0.49c-0.45,0.24-0.89,0.5-1.34,0.77c-0.49,0.28-0.99,0.59-1.48,0.9c-0.62,0.4-1.25,0.81-1.87,1.25       c-0.44,0.29-0.88,0.6-1.31,0.92c-0.07,0.05-0.14,0.1-0.2,0.15c-0.46,0.33-0.91,0.67-1.36,1.03c-0.51,0.38-1.02,0.78-1.52,1.2       c0,0-0.01,0-0.01,0.01c-1.02,0.83-2.02,1.7-3.02,2.62c-0.37,0.34-0.75,0.69-1.12,1.05c-1.32,1.26-2.62,2.59-3.89,3.99       c-4.03,4.45-7.8,9.57-11.11,15.299c0,0.011-0.01,0.011-0.01,0.021l0.03,0.069c6.04,13.801,16.54,25.051,29.91,31.979       c-0.02-0.04-0.04-0.069-0.06-0.108c-6.95-12.08-10.21-24.58-10.13-35.53"
   id="path3387" />
					<path
   fill="none"
   stroke="#000000"
   stroke-linecap="round"
   stroke-miterlimit="10"
   d="M54.019,55.52       c0.05-1.619,0.18-3.199,0.38-4.74c0.01-0.079,0.02-0.159,0.03-0.239c1.3-9.63,5.65-17.46,13.01-21.71"
   id="path3389" />
					<path
   fill="none"
   stroke="#000000"
   stroke-miterlimit="10"
   d="M54.399,50.59c0,0.061,0,0.131,0,0.189       c0.07,7.912,4.13,14.99,11.08,20.65l0.06,0.051c9.45,7.699,24.06,12.561,40.62,12.561v0.029v0.08       c-7.709,6.631-16.84,11.41-27.01,13.939c-0.04,0.01-0.09,0.021-0.13,0.03c-0.05-0.011-0.1-0.021-0.15-0.04       c-5.06-1.26-9.88-3.09-14.41-5.439c-0.02-0.029-0.03-0.061-0.05-0.091c-6.95-12.069-10.41-24.688-10.41-35.68       c0-0.45,0-0.899,0.02-1.351C54.059,53.83,54.179,52.189,54.399,50.59c0-0.029,0.01-0.05,0.01-0.08"
   id="path3391" />
				</g>
			</g>
		</g>
	</g>
</g>
<g
   id="g3393">
	<path
   fill="none"
   d="M79.659,1.467c1.232-0.307,2.486-0.577,3.752-0.809c-2.562-0.16-4.948-0.159-7.516-0.001   C77.169,0.89,78.426,1.16,79.659,1.467z"
   id="path3395" />
	<path
   fill="none"
   d="M92.892,29.047c-0.015-0.012-0.031-0.023-0.046-0.035l-0.022,0.035l-0.091-0.069   c-3.219-1.851-6.934-2.798-11.014-2.798c-4.244,0-8.758,1.019-13.431,3.006c-6.999,4.046-11.406,11.417-12.744,21.321l-0.035,0.268   c0.094,7.464,3.86,14.442,10.895,20.178c0.045,0.036,0.093,0.07,0.138,0.106l0.024-0.028c3.208,1.844,6.929,2.79,11.022,2.79   c4.243,0,8.752-1.019,13.415-3.004c7.021-4.06,11.423-11.43,12.75-21.323l0.034-0.269C103.695,41.772,99.928,34.793,92.892,29.047z   "
   id="path3397" />
	<path
   fill="none"
   d="M79.646,98.518l-0.017,0.002h-0.006c-1.205,0.307-2.454,0.578-3.766,0.817c2.61,0.165,4.929,0.167,7.586-0.002   C82.145,99.098,80.885,98.826,79.646,98.518z"
   id="path3399" />
	<path
   fill="#BDC3C7"
   d="M55.851,13.898L55.851,13.898c-0.517,0.388-1.031,0.792-1.534,1.208c-0.003,0.003-0.007,0.005-0.01,0.008   l0,0c-0.181,0.142-0.356,0.297-0.533,0.445c0.568,0.008,1.13,0.035,1.694,0.054c0.005,0,0.01,0,0.015,0   c14.976,0.529,28.693,5.05,37.981,12.608c5.691,4.648,9.307,10.053,10.687,15.869c0.01-0.373,0.036-0.735,0.038-1.113   c0-0.265,0-0.527-0.01-0.791c-0.214-10.971-3.867-23.149-10.29-34.317c-1.86-0.962-3.789-1.848-5.766-2.644   c-0.01-0.003-0.019-0.008-0.028-0.012C87.696,5.05,87.297,4.911,86.9,4.762c-0.301-0.113-0.599-0.231-0.903-0.342   c-0.699-0.247-1.405-0.495-2.12-0.724c-0.659-0.22-1.321-0.417-1.984-0.605c-0.044-0.011-0.104-0.03-0.161-0.048   c-0.122-0.035-0.234-0.063-0.354-0.096c-0.573-0.153-1.146-0.306-1.721-0.452c-0.581,0.148-1.161,0.306-1.742,0.462   c-0.515,0.144-0.999,0.282-1.493,0.44c-0.142,0.037-0.253,0.072-0.367,0.107l-0.259,0.078c-0.278,0.086-0.558,0.173-0.829,0.27   c-0.498,0.163-0.973,0.322-1.438,0.49c-0.17,0.053-0.318,0.109-0.466,0.165c-0.003,0.001-0.006,0.002-0.009,0.003v0l-0.02,0.007   c-0.496,0.179-0.979,0.362-1.462,0.565c-0.211,0.069-0.38,0.131-0.549,0.211c-0.01,0.004-0.02,0.008-0.029,0.012v0   c-0.403,0.16-0.796,0.331-1.19,0.499c-0.213,0.091-0.438,0.175-0.646,0.271c-0.038,0.016-0.075,0.036-0.113,0.053   c-1.934,0.855-3.857,1.814-5.718,2.856c-0.006,0.004-0.013,0.007-0.02,0.011c-0.078,0.04-0.133,0.065-0.188,0.105   c-0.019,0.01-0.036,0.021-0.054,0.032l0.001,0.003c-1.224,0.695-2.437,1.441-3.606,2.216c-0.007,0.005-0.015,0.009-0.022,0.014   c-0.002,0.001-0.005,0.003-0.008,0.005c-0.616,0.398-1.218,0.812-1.809,1.236C57.021,13.026,56.426,13.462,55.851,13.898z"
   id="path3401" />
	<path
   fill="#54A4C6"
   d="M130.627,23.204c5.244,6.208,9.268,13.205,11.963,20.799c0.464,1.317,0.872,2.648,1.251,3.979   c0.149-0.667,0.288-1.34,0.416-2.015c0.125-0.632,0.23-1.269,0.335-1.906c0.336-2.109,0.562-4.149,0.688-6.142   c0.04-0.686,0.07-1.374,0.1-2.061c0.02-0.727,0.029-1.452,0.029-2.188c0-1.468-0.05-2.944-0.148-4.386   c-0.097-1.412-0.243-2.865-0.438-4.318c-0.121-0.904-0.266-1.808-0.424-2.696c-5.501-6.104-11.968-11.028-19.225-14.679   c1.954,4.605,3.382,9.38,4.239,14.221C129.824,22.271,130.226,22.737,130.627,23.204z"
   id="path3403" />
	<path
   fill="#4E58A7"
   d="M82.15,2.125c0.008,0.002,0.015,0.005,0.022,0.007V2.131c0.719,0.215,1.368,0.409,2.009,0.613   c0.725,0.232,1.438,0.483,2.153,0.735c0.722,0.264,1.425,0.525,2.13,0.807c0.001,0,0.003,0.001,0.004,0.002   c0.001,0,0.001,0,0.002,0c1.631,0.642,3.223,1.367,4.775,2.129L93.242,6.41l1.487,0.726c13.378,6.934,24.078,18.378,30.128,32.224   l0.004,0.009l0.045,0.089c1.197,2.708,2.208,5.538,3.037,8.431c0.146-0.657,0.278-1.295,0.395-1.92   c0.13-0.66,0.239-1.325,0.349-1.99c0.322-2.028,0.549-4.067,0.674-6.06c0.04-0.686,0.07-1.373,0.099-2.06   c0.021-0.728,0.03-1.453,0.03-2.189c0-1.468-0.05-2.944-0.148-4.386c-0.097-1.412-0.243-2.865-0.438-4.318   c-0.122-0.905-0.266-1.809-0.425-2.698c-0.976-1.083-1.958-2.106-2.918-3.04c-0.61-0.602-1.288-1.232-2.134-1.985   c-0.686-0.62-1.408-1.239-2.214-1.896c-1.182-0.964-2.317-1.831-3.473-2.649c-1.271-0.901-2.47-1.693-3.661-2.421   c-0.834-0.506-1.679-1.003-2.533-1.48c-7.438-4.125-15.496-6.733-23.95-7.751c-1.97,0.229-3.928,0.552-5.844,0.964   c0.061,0.017,0.122,0.033,0.184,0.05L82.15,2.125z"
   id="path3405" />
	<path
   fill="#EEEEEE"
   d="M105.179,42.16c0.01,0.268,0.01,0.544,0.01,0.82c0,0,0,0.001,0,0.001c0,0.001,0,0.001,0,0.001   c0,0.004,0,0.008,0,0.012c0.009,2.275-0.126,4.476-0.4,6.539l-0.015,0.116l-0.033-0.004c-1.066,7.91-4.2,14.424-8.972,18.869   l0.183-0.099c0.002-0.001,0.002-0.002,0.004-0.003c0.443-0.246,0.877-0.491,1.319-0.767c0.121-0.07,0.238-0.147,0.358-0.219   c0.402-0.242,0.808-0.485,1.207-0.738c0.512-0.335,1.018-0.673,1.533-1.02c0.021-0.014,0.041-0.03,0.062-0.044   c3.094-2.123,6.122-4.607,8.996-7.385l0.225-0.214c0.952-0.932,1.823-1.826,2.666-2.736c0.289-0.308,0.575-0.614,0.852-0.93   c0.551-0.602,1.086-1.215,1.608-1.838c0.053-0.062,0.101-0.12,0.152-0.182c0.286-0.334,0.566-0.669,0.834-1.003   c0.017-0.02,0.031-0.041,0.048-0.061c2.897-3.55,5.599-7.463,8.03-11.636c-5.752-12.953-15.657-23.788-28.017-30.711   c5.913,10.793,9.216,22.506,9.349,33.215C105.179,42.15,105.179,42.155,105.179,42.16z"
   id="path3407" />
	<path
   fill="#A7CF5C"
   d="M145.409,66.3c0-2.057-0.097-4.147-0.288-6.214c-0.253-2.672-0.677-5.367-1.26-8.009   c-0.005-0.023-0.012-0.046-0.017-0.07c-0.378,1.322-0.786,2.651-1.254,3.979c-2.695,7.596-6.719,14.592-11.96,20.796   c-0.401,0.478-0.806,0.944-1.217,1.404c-0.856,4.824-2.284,9.598-4.242,14.215c7.238-3.634,13.707-8.555,19.228-14.672   c0.158-0.896,0.303-1.792,0.425-2.697c0.193-1.464,0.341-2.92,0.437-4.326C145.359,69.265,145.409,67.782,145.409,66.3z"
   id="path3409" />
	<path
   fill="#F4EA70"
   d="M107.275,84.319l-0.141,0.121h-0.042c-0.334,0.284-0.668,0.568-1.013,0.841   c-0.13,0.123-0.298,0.261-0.467,0.389l0,0c-0.004,0.003-0.007,0.005-0.011,0.008c-0.001,0.001-0.001,0.001-0.002,0.002   c-6.936,5.627-14.831,9.724-23.452,12.174c-0.051,0.016-0.101,0.033-0.152,0.048c-0.011,0.003-0.022,0.006-0.033,0.009   c-0.078,0.022-0.158,0.041-0.236,0.063c1.872,0.404,3.811,0.728,5.872,0.981c15.721-1.898,30.229-9.433,40.881-21.226   c0.158-0.896,0.303-1.792,0.425-2.697c0.193-1.464,0.341-2.92,0.437-4.326c0.099-1.441,0.148-2.924,0.148-4.406   c0-2.057-0.097-4.147-0.288-6.214c-0.252-2.666-0.675-5.355-1.256-7.991C124.36,64.631,117.248,75.742,107.275,84.319z"
   id="path3411" />
	<path
   fill="#F2F1EF"
   d="M127.442,50.004l-0.016-0.062v-0.001c-0.794-3.095-1.837-6.152-3.085-9.114   c-2.342,3.948-4.955,7.684-7.774,11.111c-0.007,0.01-0.014,0.02-0.021,0.028l-0.084,0.102c-0.304,0.368-0.607,0.736-0.911,1.095   c-0.558,0.65-1.085,1.268-1.632,1.865c-0.277,0.315-0.571,0.63-0.864,0.943c-0.944,1.02-1.827,1.926-2.697,2.768l0,0l-0.225,0.214   c-0.001,0.001-0.003,0.003-0.004,0.004c-0.001,0-0.001,0.001-0.001,0.001c-2.935,2.854-6.025,5.391-9.188,7.536   c-0.521,0.361-1.036,0.705-1.562,1.038c-0.171,0.112-0.348,0.21-0.521,0.318c-0.354,0.219-0.71,0.44-1.061,0.649   c-0.453,0.271-0.897,0.534-1.353,0.787l-0.896,0.483c-0.739,0.398-1.346,0.705-1.908,0.964c-0.247,0.127-0.512,0.242-0.773,0.358   c-0.12,0.055-0.239,0.114-0.357,0.166c-0.001,0.001-0.002,0.001-0.003,0.001c-0.003,0.002-0.005,0.003-0.008,0.004   c-0.019,0.009-0.038,0.016-0.057,0.024c-0.335,0.148-0.665,0.291-0.995,0.432c-0.003,0.001-0.006,0.001-0.009,0.002l-0.057,0.026   c-0.006,0.003-0.013,0.002-0.019,0.004c-4.765,2.025-9.399,3.068-13.772,3.068c-2.57,0-5.001-0.359-7.271-1.071   c9.529,6.184,22.508,9.674,36.398,9.69C116.955,74.582,124.112,63.041,127.442,50.004z"
   id="path3413" />
	<path
   fill="#ECECEC"
   d="M103.8,84.386c-14.971-0.532-28.682-5.052-37.967-12.608c-5.691-4.64-9.306-10.041-10.687-15.863   c-0.009,0.371-0.036,0.73-0.038,1.106c0,0.265,0,0.518,0.01,0.781c0.214,10.954,3.867,23.132,10.289,34.316   c4.533,2.341,9.319,4.147,14.242,5.367c0.689-0.169,1.376-0.355,2.056-0.542c0.005-0.002,0.01-0.003,0.014-0.004   c0.076-0.021,0.15-0.049,0.227-0.07c8.374-2.407,16.09-6.408,22.935-11.898c0.034-0.027,0.069-0.052,0.104-0.079   c0.16-0.12,0.307-0.238,0.443-0.367c0.011-0.009,0.021-0.017,0.032-0.025l-0.001-0.001c0.022-0.018,0.044-0.039,0.067-0.057   c-0.558-0.009-1.109-0.034-1.663-0.054C103.841,84.387,103.821,84.387,103.8,84.386z"
   id="path3415" />
	<path
   fill="#633C98"
   d="M52.023,15.681l0.141-0.121h0.041l0.001-0.002c0.128-0.108,0.248-0.207,0.374-0.305   c0.367-0.326,0.734-0.632,1.111-0.927c0.505-0.417,1.03-0.831,1.556-1.225l0,0c0,0,0.001,0,0.001,0l0.001-0.001   c0.593-0.452,1.188-0.886,1.794-1.31c0.625-0.459,1.25-0.887,1.85-1.264c1.185-0.797,2.428-1.561,3.682-2.263   c0.05-0.043,0.155-0.098,0.261-0.151c1.909-1.086,3.881-2.069,5.839-2.916c0.024-0.011,0.048-0.023,0.073-0.034   c0.616-0.272,1.241-0.535,1.877-0.788l0,0c0.001,0,0.002-0.001,0.004-0.001c0.165-0.08,0.361-0.15,0.558-0.214l0,0   c0.033-0.014,0.066-0.025,0.099-0.039c0.413-0.174,0.856-0.343,1.304-0.506l0.115-0.043v0c0.002,0,0.003-0.001,0.005-0.002   c0.162-0.061,0.322-0.12,0.482-0.171l0,0c0.005-0.002,0.011-0.003,0.016-0.005c0.001,0,0.001-0.001,0.002-0.001   c0.273-0.099,0.572-0.196,0.863-0.294c0.189-0.063,0.378-0.13,0.567-0.193l0.001,0c0,0,0.001,0,0.001,0   c0.271-0.097,0.564-0.188,0.857-0.279l0.258-0.078c0.12-0.038,0.237-0.072,0.355-0.103c0.196-0.064,0.398-0.116,0.597-0.176   c0.288-0.086,0.572-0.173,0.869-0.257c-1.924-0.414-3.896-0.737-5.886-0.967c-8.445,1.018-16.5,3.625-23.942,7.752   c-0.854,0.477-1.698,0.974-2.533,1.48c-1.278,0.791-2.511,1.606-3.661,2.421c-1.117,0.791-2.286,1.683-3.473,2.649   c-0.754,0.615-1.499,1.251-2.224,1.896c-0.765,0.681-1.459,1.33-2.121,1.982c-1.007,0.978-1.99,2-2.931,3.042   c-0.662,3.781-1,7.623-1,11.421c0,2.05,0.097,4.137,0.288,6.204c0.112,1.2,0.265,2.435,0.466,3.771l0.089,0.577   c0.211,1.32,0.438,2.524,0.694,3.68c0.001,0.005,0.003,0.011,0.004,0.017C34.914,35.411,42.027,24.288,52.023,15.681z"
   id="path3417" />
	<path
   fill="#D2D7D3"
   d="M31.845,50c0.795,3.119,1.844,6.199,3.1,9.182c2.618-4.417,5.567-8.557,8.778-12.315   c0.008-0.01,0.016-0.02,0.024-0.03c0.002-0.003,0.005-0.005,0.007-0.008c0.51-0.616,1.085-1.269,1.807-2.048l0,0   c0.305-0.338,0.574-0.635,0.852-0.933c0.297-0.318,0.598-0.629,0.898-0.94c0.126-0.131,0.253-0.269,0.379-0.397   c0.001-0.001,0.003-0.003,0.004-0.004l0,0c0.41-0.42,0.825-0.844,1.249-1.249c0.051-0.061,0.144-0.145,0.239-0.229   c1.497-1.446,3.021-2.804,4.52-4.027c0.954-0.794,1.982-1.587,3.053-2.358c0.013-0.009,0.026-0.02,0.039-0.029   c0.523-0.382,1.037-0.745,1.56-1.107c0.07-0.047,0.139-0.091,0.209-0.138c0.445-0.304,0.893-0.601,1.341-0.886l0.036-0.025   c0.014-0.009,0.026-0.016,0.04-0.025l-0.001-0.002l0.267-0.164c0.43-0.27,0.845-0.526,1.26-0.77   c0.521-0.311,1.056-0.614,1.58-0.906c0.367-0.204,0.724-0.397,1.09-0.581l0.335-0.166l-0.005-0.009   c0.367-0.193,0.743-0.376,1.11-0.549l0.004,0.009l0.045-0.022l-0.005-0.01c0.129-0.066,0.257-0.117,0.385-0.178l0.063-0.031   c0.228-0.107,0.455-0.214,0.678-0.312c0.004-0.002,0.008-0.003,0.013-0.006c0,0,0.001,0,0.001,0   c7.994-3.642,15.726-4.49,22.188-2.472c-9.52-6.189-22.498-9.686-36.4-9.704C42.35,25.39,35.179,36.945,31.845,50z"
   id="path3419" />
	<path
   fill="#DADFE1"
   d="M54.119,57.83c-0.01-0.268-0.01-0.533-0.01-0.811c0-0.001,0-0.001,0-0.002l0,0c0-0.003,0-0.006,0-0.01   c-0.009-2.286,0.126-4.5,0.404-6.574l0.033,0l0.005-0.042c1.084-8.022,4.135-14.431,8.901-18.856   c-0.477,0.267-0.961,0.541-1.438,0.825c-0.445,0.262-0.881,0.533-1.323,0.809l-0.164,0.101l-0.032,0.022   c-0.008,0.005-0.016,0.011-0.024,0.016l0.001,0.001c-0.478,0.312-0.955,0.626-1.433,0.946c-0.038,0.026-0.078,0.05-0.116,0.077   c-0.206,0.139-0.405,0.29-0.609,0.432c-0.309,0.218-0.617,0.432-0.931,0.661c-0.997,0.727-1.99,1.493-3.036,2.344   c-0.003,0.002-0.006,0.004-0.009,0.007c-0.043,0.036-0.087,0.076-0.131,0.112c-1.501,1.24-2.963,2.542-4.341,3.873   c-0.084,0.076-0.147,0.128-0.2,0.189c-0.01,0.01-0.019,0.019-0.029,0.028l0.001,0.001c-0.417,0.407-0.824,0.814-1.231,1.231   c-0.417,0.427-0.845,0.875-1.263,1.322c-0.275,0.294-0.541,0.588-0.806,0.882c-0.637,0.7-1.226,1.368-1.804,2.043   c-0.006,0.007-0.014,0.015-0.02,0.022c-0.026,0.03-0.05,0.063-0.076,0.093c-3.259,3.857-6.282,8.16-8.985,12.794   c5.747,12.935,15.65,23.763,28.012,30.695c-6.002-10.943-9.221-22.38-9.345-33.22C54.12,57.838,54.119,57.834,54.119,57.83z"
   id="path3421" />
	<path
   fill="#E6935A"
   d="M73.767,96.785c-2.688-0.925-5.318-2.02-7.87-3.287l0.037,0.074l-1.365-0.709   c-13.2-6.847-23.782-18.079-29.87-31.666l-0.013,0.013l-0.294-0.668c-1.209-2.744-2.223-5.583-3.045-8.458   c-0.146,0.661-0.279,1.306-0.396,1.937c-0.129,0.677-0.248,1.34-0.347,2.013c-0.208,1.337-0.378,2.699-0.507,4.054   c-0.191,2.065-0.288,4.156-0.288,6.213c0,3.839,0.329,7.579,1,11.43c10.674,11.795,25.183,19.33,40.88,21.226   c2.12-0.262,4.062-0.586,5.888-0.982c-0.104-0.028-0.208-0.062-0.312-0.091c-1.109-0.313-2.208-0.656-3.3-1.028   C73.899,96.831,73.833,96.809,73.767,96.785z"
   id="path3423" />
	<path
   fill="#EC664F"
   d="M26.168,73.66c-2.797-3.747-5.214-7.801-7.183-12.05c-0.547-1.183-1.065-2.398-1.582-3.718   c-0.559-1.454-0.991-2.674-1.361-3.841c-0.222-0.693-0.425-1.359-0.611-2.007c-1.03,4.683-1.553,9.468-1.553,14.255   c0,3.8,0.333,7.541,1.01,11.43c5.548,6.126,12.017,11.046,19.231,14.669c-1.925-4.519-3.355-9.29-4.247-14.214   C28.55,76.695,27.302,75.175,26.168,73.66z"
   id="path3425" />
	<path
   fill="#64B971"
   d="M145.787,23.853c-0.046-0.053-0.091-0.105-0.136-0.158c0.058,0.379,0.112,0.759,0.163,1.139   c0.197,1.475,0.346,2.95,0.444,4.383c0.1,1.464,0.15,2.963,0.15,4.454c0,0.745-0.01,1.479-0.029,2.223   c-0.031,0.701-0.062,1.393-0.102,2.086c-0.127,2.027-0.357,4.098-0.685,6.16c-0.121,0.732-0.228,1.38-0.354,2.019   c-0.244,1.292-0.53,2.584-0.848,3.841c0.159,0.611,0.302,1.231,0.445,1.86c0.593,2.686,1.022,5.421,1.28,8.135   c0.193,2.098,0.292,4.219,0.292,6.307c0,1.505-0.051,3.01-0.15,4.475c-0.098,1.427-0.247,2.904-0.443,4.391   c-0.052,0.381-0.106,0.76-0.164,1.137c6.052-7.132,10.582-15.56,13.147-24.479c0.178-0.607,0.337-1.211,0.494-1.823   C156.858,40.477,152.19,31.438,145.787,23.853z"
   id="path3427" />
	<path
   fill="#66B877"
   d="M128.5,50.118c0.146,0.576,0.286,1.158,0.417,1.742c0.592,2.684,1.021,5.419,1.279,8.133   c0.193,2.098,0.292,4.219,0.292,6.307c0,1.505-0.051,3.01-0.15,4.475c-0.098,1.427-0.247,2.904-0.443,4.391   c-0.052,0.379-0.106,0.756-0.163,1.132c0.045-0.053,0.09-0.105,0.135-0.159c5.163-6.112,9.126-13.004,11.78-20.484   c0.668-1.895,1.248-3.8,1.725-5.665c-0.471-1.827-1.056-3.755-1.725-5.652c-2.653-7.479-6.617-14.371-11.78-20.484   c-0.045-0.053-0.091-0.105-0.136-0.158c0.058,0.379,0.112,0.759,0.163,1.139c0.197,1.475,0.346,2.95,0.444,4.383   c0.1,1.464,0.15,2.963,0.15,4.454c0,0.745-0.01,1.479-0.03,2.224c-0.03,0.7-0.061,1.393-0.101,2.085   c-0.127,2.027-0.357,4.098-0.685,6.16c-0.112,0.678-0.224,1.353-0.354,2.018c-0.219,1.177-0.489,2.399-0.821,3.719l0.052,0.145   L128.5,50.118z"
   id="path3429" />
	<path
   fill="#4F5DAA"
   d="M91.752,0.661c7.115,1.299,13.92,3.734,20.278,7.262c0.867,0.483,1.722,0.986,2.568,1.5   c1.212,0.741,2.429,1.545,3.719,2.459c1.174,0.832,2.328,1.712,3.527,2.691c0.818,0.668,1.554,1.298,2.249,1.926   c0.855,0.762,1.545,1.403,2.165,2.015c0.618,0.6,1.244,1.236,1.873,1.902c-0.938-4.61-2.396-9.151-4.346-13.524   C114.93,2.677,105.438,0.54,95.569,0.54C94.322,0.54,93.055,0.58,91.752,0.661z"
   id="path3431" />
	<path
   fill="#E8BF64"
   d="M123.787,93.098c1.95-4.385,3.409-8.923,4.346-13.517c-9.762,10.302-22.5,17.206-36.372,19.754   c1.326,0.084,2.59,0.125,3.809,0.125C105.414,99.46,114.906,97.319,123.787,93.098z"
   id="path3433" />
	<path
   fill="#4E4A9E"
   d="M35.509,6.893c-1.922,4.278-3.382,8.818-4.349,13.521c0.615-0.648,1.244-1.285,1.881-1.903   c0.671-0.662,1.377-1.322,2.155-2.015c0.735-0.655,1.491-1.299,2.257-1.924c1.205-0.981,2.392-1.886,3.527-2.69   c1.167-0.826,2.417-1.653,3.716-2.457c0.849-0.516,1.704-1.019,2.569-1.501c6.362-3.529,13.164-5.963,20.272-7.262   C66.236,0.58,64.973,0.54,63.729,0.54C53.861,0.54,44.368,2.677,35.509,6.893z"
   id="path3435" />
	<path
   fill="#E68B5D"
   d="M67.529,99.335c-13.852-2.547-26.589-9.449-36.369-19.75c0.966,4.687,2.426,9.224,4.349,13.513   c8.86,4.222,18.354,6.362,28.219,6.362C64.944,99.46,66.205,99.419,67.529,99.335z"
   id="path3437" />
	<path
   fill="#E34461"
   d="M30.792,49.9c-0.145-0.585-0.283-1.17-0.42-1.756c-0.261-1.181-0.492-2.404-0.707-3.745l-0.09-0.58   c-0.205-1.36-0.36-2.612-0.474-3.833c-0.194-2.098-0.292-4.216-0.292-6.296c0-3.324,0.253-6.68,0.753-10.001   c-0.883,1.039-1.752,2.124-2.594,3.242c-2.764,3.689-5.145,7.683-7.075,11.869c-0.6,1.295-1.109,2.492-1.557,3.66   c-0.486,1.24-0.937,2.511-1.34,3.782c-0.431,1.354-0.785,2.585-1.081,3.759c0.3,1.189,0.654,2.417,1.081,3.748   c0.365,1.149,0.791,2.351,1.341,3.782c0.508,1.298,1.018,2.496,1.557,3.66c1.94,4.187,4.321,8.18,7.077,11.871   c0.81,1.082,1.679,2.17,2.593,3.245c-0.5-3.335-0.753-6.693-0.753-10.007c0-2.088,0.098-4.209,0.292-6.306   c0.13-1.376,0.303-2.759,0.514-4.111c0.101-0.683,0.222-1.359,0.353-2.047c0.218-1.184,0.488-2.407,0.817-3.726l-0.049-0.104   L30.792,49.9z"
   id="path3439" />
	<path
   fill="#953A71"
   d="M13.879,33.67c0,4.796,0.523,9.591,1.553,14.284c0.186-0.646,0.387-1.314,0.61-2.015   c0.41-1.292,0.868-2.584,1.361-3.841c0.455-1.186,0.973-2.402,1.582-3.717c1.959-4.25,4.376-8.304,7.184-12.05   c1.192-1.583,2.438-3.099,3.705-4.515c0.893-4.939,2.322-9.714,4.245-14.221c-7.233,3.641-13.702,8.563-19.229,14.677   C14.221,26.088,13.879,29.923,13.879,33.67z"
   id="path3441" />
	<path
   fill="#E6425A"
   d="M12.879,66.3c0-5.484,0.674-10.968,2.004-16.3c-1.33-5.343-2.004-10.836-2.004-16.33   c0-3.284,0.256-6.633,0.762-9.979C7.149,31.327,2.446,40.385-0.005,50c2.454,9.607,7.157,18.666,13.646,26.308   C13.129,72.927,12.879,69.637,12.879,66.3z"
   id="path3443" />
	<path
   fill="#5A5B5B"
   d="M86.334,3.479c-0.715-0.251-1.429-0.503-2.153-0.735c-0.641-0.204-1.29-0.398-2.009-0.613v0.001   c0.685,0.194,1.354,0.394,2.015,0.614c0.721,0.23,1.437,0.472,2.153,0.735c0.713,0.25,1.42,0.513,2.128,0.807   c-0.001,0-0.003-0.001-0.004-0.002C87.759,4.004,87.056,3.742,86.334,3.479z"
   id="path3445" />
	<path
   fill="#5A5B5B"
   d="M105.459,84.499c0.024-0.02,0.049-0.039,0.072-0.058c-0.002,0-0.004,0-0.006,0   C105.502,84.459,105.481,84.48,105.459,84.499L105.459,84.499z"
   id="path3447" />
	<path
   fill="#5A5B5B"
   d="M82.148,97.854c-0.052,0.016-0.102,0.033-0.153,0.048c-0.011,0.003-0.021,0.006-0.032,0.009   c0.011-0.003,0.022-0.006,0.033-0.009C82.047,97.887,82.097,97.869,82.148,97.854z"
   id="path3449" />
	<polygon
   fill="#5A5B5B"
   points="105.613,85.67 105.602,85.678 105.613,85.67  "
   id="polygon3451" />
	<path
   fill="#5A5B5B"
   d="M73.767,96.785c0.066,0.023,0.132,0.046,0.199,0.068C73.899,96.831,73.833,96.809,73.767,96.785z"
   id="path3453" />
	<path
   fill="#5A5B5B"
   d="M52.604,15.234c0.341-0.305,0.709-0.612,1.087-0.908c-0.377,0.295-0.744,0.601-1.111,0.927   C52.588,15.247,52.596,15.24,52.604,15.234z"
   id="path3455" />
	<polygon
   fill="#5A5B5B"
   points="55.247,13.102 55.248,13.101 55.247,13.102  "
   id="polygon3457" />
	<path
   fill="#5A5B5B"
   d="M68.747,5.163c-0.024,0.011-0.048,0.023-0.073,0.034c0.025-0.011,0.051-0.025,0.077-0.036   c0.608-0.279,1.246-0.542,1.874-0.786l0,0C69.988,4.627,69.363,4.89,68.747,5.163z"
   id="path3459" />
	<path
   fill="#5A5B5B"
   d="M73.054,4.508c-0.007,0.002-0.013,0.005-0.02,0.008L73.054,4.508L73.054,4.508z"
   id="path3461" />
	<path
   fill="#5A5B5B"
   d="M72.589,3.615c0.039-0.014,0.077-0.029,0.115-0.043v0L72.589,3.615z"
   id="path3463" />
	<path
   fill="#5A5B5B"
   d="M71.186,4.16c0.015-0.005,0.027-0.011,0.042-0.016c0.018-0.008,0.038-0.015,0.057-0.023   C71.251,4.134,71.219,4.146,71.186,4.16L71.186,4.16z"
   id="path3465" />
	<path
   fill="#5A5B5B"
   d="M74.074,3.099c0.192-0.064,0.372-0.129,0.568-0.193l-0.001,0C74.452,2.969,74.263,3.035,74.074,3.099z"
   id="path3467" />
	<path
   fill="#5A5B5B"
   d="M73.192,3.399c0.005-0.001,0.011-0.004,0.016-0.005C73.203,3.396,73.197,3.397,73.192,3.399L73.192,3.399z"
   id="path3469" />
	<path
   fill="#5A5B5B"
   d="M76.147,2.435c0.181-0.059,0.376-0.111,0.563-0.167c-0.199,0.061-0.4,0.112-0.597,0.176   C76.125,2.442,76.136,2.438,76.147,2.435z"
   id="path3471" />
</g>
<g
   id="Layer_2"
   display="none">
	<g
   display="inline"
   id="g3474">
		<g
   id="XMLID_1_">
			<g
   id="g3477">
				<path
   fill="#63B971"
   d="M145.649,23.69c6.48,7.62,11.18,16.67,13.65,26.31c-2.471,9.63-7.17,18.689-13.65,26.3      c0.52-3.37,0.77-6.659,0.77-10c0-5.489-0.68-10.979-2.02-16.3c1.34-5.33,2.02-10.83,2.02-16.32      C146.418,30.39,146.159,27.04,145.649,23.69z"
   id="path3479" />
				<path
   fill="#A7CF5C"
   d="M145.418,66.3c0,3.812-0.34,7.55-1.01,11.421c-5.521,6.109-11.99,11.039-19.24,14.68      c1.949-4.569,3.381-9.351,4.25-14.221c6.721-7.52,11.681-16.52,14.431-26.14C144.889,56.71,145.418,61.5,145.418,66.3z"
   id="path3481" />
				<path
   fill="#53A4C6"
   d="M144.409,22.27c0.66,3.82,1.01,7.66,1.01,11.41c0,4.8-0.528,9.59-1.568,14.28      c-2.75-9.63-7.71-18.63-14.432-26.14c-0.869-4.87-2.299-9.65-4.25-14.23C132.439,11.25,138.909,16.18,144.409,22.27z"
   id="path3483" />
				<path
   fill="#65B877"
   d="M129.729,23.69c6.479,7.62,11.18,16.68,13.641,26.31c-2.461,9.63-7.16,18.68-13.641,26.3      c0.52-3.37,0.77-6.659,0.77-10c0-5.43-0.67-10.87-1.979-16.13l0.029-0.12l-0.021-0.11c-0.01-0.02-0.01-0.04-0.021-0.06      c1.32-5.3,1.99-10.75,1.99-16.2C130.499,30.39,130.239,27.04,129.729,23.69z"
   id="path3485" />
				<path
   fill="#F3E970"
   d="M129.499,66.3c0,3.812-0.34,7.55-1.01,11.421c-10.66,11.799-25.17,19.34-40.88,21.239      c-1.989-0.239-3.88-0.58-5.729-0.979c9.369-2.631,17.869-7.149,25.25-13.489h0.039l0.142-0.13      c9.96-8.551,17.069-19.641,20.66-32.17C128.979,56.83,129.499,61.57,129.499,66.3z"
   id="path3487" />
				<path
   fill="#4E59A7"
   d="M128.489,22.27c0.66,3.82,1.01,7.66,1.01,11.41c0,4.76-0.52,9.52-1.539,14.18      c-0.819-2.84-1.819-5.65-3.021-8.36l-0.37-0.99l-0.05,0.09c-6.101-13.47-16.63-24.61-29.75-31.42L94.04,6.8v0.03      c-0.431-0.22-0.851-0.44-1.279-0.64h-0.012c-0.34-0.17-0.699-0.34-1.068-0.51c-0.012,0-0.012-0.01-0.021-0.01      c-0.609-0.28-1.22-0.56-1.818-0.8c-0.07-0.03-0.141-0.06-0.211-0.09C89.48,4.72,89.34,4.66,89.19,4.6l-0.01-0.01h-0.012      c0-0.01-0.01-0.01-0.01-0.01c-0.039-0.01-0.068-0.02-0.1-0.04c-0.609-0.26-1.17-0.48-1.67-0.65c-0.01-0.01-0.021-0.01-0.03-0.01      c0,0,0,0-0.01-0.01c-0.601-0.25-1.22-0.47-1.83-0.66c-0.011,0-0.011,0-0.011,0c-1.199-0.43-2.5-0.82-3.819-1.19      c1.92-0.41,3.91-0.74,5.91-0.98C103.349,2.95,117.859,10.49,128.489,22.27z"
   id="path3489" />
				<path
   fill="#BDC3C7"
   d="M124.37,40.88c1.229,2.91,2.271,5.97,3.08,9.13c-3.33,13.061-10.521,24.631-20.781,33.471      c-13.869-0.029-26.81-3.521-36.31-9.689c2.27,0.72,4.7,1.08,7.27,1.08c4.72,0,9.741-1.2,14.9-3.561      c0.39-0.16,0.78-0.34,1.14-0.529c0.57-0.262,1.172-0.57,1.91-0.961l0.9-0.489c0.45-0.25,0.9-0.511,1.35-0.79      c0.07-0.029,0.131-0.08,0.2-0.12c0.431-0.25,0.87-0.51,1.29-0.78l0.01-0.01h0.012l0.27-0.189c0.46-0.289,0.92-0.58,1.37-0.899      c3.13-2.13,6.22-4.66,9.181-7.54c0.01,0,0.01,0,0.01,0c0.07-0.07,0.131-0.13,0.211-0.21c0.01,0,0.01,0,0.01,0l0.46-0.46      c0.26-0.26,0.53-0.53,0.79-0.79c0.49-0.5,0.979-1.01,1.449-1.521c0.25-0.271,0.49-0.539,0.74-0.811l0.129-0.141      c0,0,0-0.01,0.012-0.01c1-1.109,1.859-2.109,2.609-3.041v-0.01c0.01-0.01,0.021-0.02,0.029-0.029      C119.439,48.53,122.049,44.8,124.37,40.88z"
   id="path3491" />
				<path
   fill="#4F5EAA"
   d="M123.779,6.89c1.95,4.35,3.41,8.89,4.36,13.53c-9.74-10.29-22.48-17.2-36.36-19.76      c1.3-0.08,2.562-0.12,3.79-0.12C105.45,0.54,114.939,2.68,123.779,6.89z"
   id="path3493" />
				<path
   fill="#E8BE63"
   d="M128.139,79.58c-0.95,4.641-2.42,9.18-4.36,13.52c-8.85,4.221-18.35,6.36-28.21,6.36      c-1.229,0-2.479-0.04-3.79-0.12C105.639,96.79,118.37,89.88,128.139,79.58z"
   id="path3495" />
				<path
   fill="#95A5A5"
   d="M123.87,39.7c-2.399,4.14-5.101,8.05-8.011,11.62c-0.021,0.02-0.04,0.039-0.05,0.06      c-0.92,1.11-1.76,2.091-2.57,2.99c-0.01,0.01-0.02,0.021-0.029,0.04c-0.279,0.311-0.561,0.619-0.851,0.93      c-0.479,0.51-0.94,1.01-1.43,1.5c-0.41,0.41-0.83,0.83-1.24,1.24c-0.08,0.061-0.149,0.13-0.22,0.21      c-2.87,2.771-5.9,5.25-8.99,7.38c-0.029,0.01-0.05,0.03-0.07,0.04c-0.318,0.22-0.64,0.431-0.97,0.64      c-0.12,0.08-0.239,0.17-0.36,0.24c-0.01,0-0.01,0.01-0.02,0.01l-0.271,0.19c-0.488,0.31-0.979,0.61-1.47,0.899      c-0.45,0.261-0.88,0.521-1.319,0.771l-0.141,0.069c4.771-4.42,7.83-10.819,8.92-18.829h0.03l0.021-0.12      c0.271-2.07,0.399-4.28,0.399-6.54c0-0.01,0-0.01,0-0.01s0,0,0-0.01c0-0.27,0-0.54-0.011-0.8c0-0.01,0-0.01-0.01-0.02      c-0.119-10.87-3.351-22.34-9.359-33.26C108.208,15.87,118.12,26.73,123.87,39.7z"
   id="path3497" />
				<path
   fill="#D2D7D3"
   d="M103.918,84.43c0.511,0.021,1.011,0.041,1.521,0.051C97.918,90.67,89.04,95.17,79.649,97.491      c-4.92-1.222-9.68-3.021-14.24-5.37c-6.62-11.54-10.26-24.07-10.26-35.29c0-0.33,0-0.649,0-0.979      c1.36,5.869,4.99,11.311,10.72,15.971c9.27,7.56,22.99,12.08,37.969,12.609C103.859,84.43,103.889,84.43,103.918,84.43z"
   id="path3499" />
				<path
   fill="#6C7A89"
   d="M104.219,42.24c0.01,0.27,0.01,0.52,0.01,0.78c-0.01,0.38-0.029,0.74-0.04,1.11      c-1.38-5.81-5-11.21-10.69-15.86c-9.289-7.56-23-12.08-37.979-12.61c-0.02,0-0.03,0-0.04,0c-0.57-0.02-1.12-0.05-1.69-0.06      C61.37,9.32,70.08,4.93,79.71,2.54c1.77,0.44,3.621,0.98,5.48,1.62c0.609,0.21,1.21,0.42,1.82,0.65      c0.6,0.23,1.199,0.47,1.789,0.7c0,0.01,0.011,0.01,0.011,0.01c0.31,0.13,0.64,0.27,0.96,0.4c0.51,0.23,1.01,0.45,1.479,0.67      c0.36,0.16,0.711,0.32,1.07,0.49c0,0,0,0,0,0.01c0.53,0.25,1.051,0.51,1.58,0.78C100.338,19.07,103.999,31.26,104.219,42.24z"
   id="path3501" />
				<path
   fill="#5A5B5B"
   d="M91.659,5.67c-0.58-0.26-1.18-0.52-1.818-0.8C90.439,5.11,91.049,5.39,91.659,5.67z"
   id="path3503" />
				<path
   fill="#5A5B5B"
   d="M89.059,4.54c-0.551-0.22-1.109-0.44-1.67-0.65C87.889,4.06,88.45,4.28,89.059,4.54z"
   id="path3505" />
				<path
   fill="#5A5B5B"
   d="M87.349,3.87c-0.61-0.23-1.22-0.45-1.83-0.66C86.129,3.4,86.749,3.62,87.349,3.87z"
   id="path3507" />
				<path
   fill="#ABB7B7"
   d="M88.989,26.3c-6.14-1.92-13.44-1.23-21.08,2.02c0,0-0.01,0-0.02,0.01c-0.35,0.15-0.71,0.3-1.06,0.46      c-0.38,0.16-0.77,0.34-1.14,0.52c-0.62,0.3-1.24,0.61-1.86,0.95c-0.02,0-0.03,0.01-0.04,0.01c-0.31,0.17-0.6,0.33-0.89,0.49      c-0.46,0.25-0.92,0.51-1.36,0.78c-0.21,0.13-0.42,0.26-0.64,0.39c-0.28,0.18-0.57,0.34-0.86,0.52      c-0.62,0.41-1.26,0.82-1.87,1.26c0,0-0.01,0-0.01,0.01l-0.55,0.38c-0.26,0.18-0.52,0.35-0.77,0.54      c-0.08,0.06-0.15,0.11-0.2,0.15c-0.3,0.22-0.59,0.45-0.89,0.68c-0.16,0.12-0.32,0.23-0.47,0.35c-0.48,0.36-0.95,0.72-1.41,1.11      l-0.32,0.01v0.26c-0.95,0.77-1.89,1.59-2.86,2.49c-0.38,0.34-0.76,0.69-1.13,1.06c-1.35,1.28-2.66,2.63-3.91,4.01      c-3.98,4.35-7.56,9.24-10.68,14.51c-0.11-0.27-0.24-0.549-0.35-0.818c0-0.01-0.01-0.021-0.01-0.03      c-0.01-0.03-0.02-0.05-0.03-0.069c-1.11-2.761-2.03-5.561-2.73-8.331c0.09-0.36,0.19-0.73,0.28-1.07l0.73-2.47      c0-0.01,0-0.01,0.01-0.01c0-0.01,0.01-0.02,0.01-0.03c0.08-0.25,0.15-0.5,0.24-0.75l0.12-0.38l0.02-0.04      c0.27-0.8,0.56-1.6,0.86-2.39c0-0.01,0-0.01,0-0.02c0.02-0.03,0.03-0.07,0.05-0.11c3.86-10.03,10.22-19.06,18.4-26.15      C66.479,16.62,79.459,20.11,88.989,26.3z"
   id="path3509" />
				<path
   fill="#E7935A"
   d="M77.459,98c-1.83,0.4-3.73,0.71-5.77,0.96c-15.71-1.899-30.21-9.431-40.87-21.229      c-0.68-3.881-1.01-7.619-1.01-11.431c0-4.81,0.52-9.59,1.54-14.25c0.66,2.3,1.44,4.562,2.33,6.74c0.22,0.56,0.45,1.11,0.7,1.66      v0.43h0.18c6.08,13.761,16.74,25.13,30.05,32.03l0.15,0.07l0.11,0.06C68.889,95.12,73.119,96.79,77.459,98z"
   id="path3511" />
				<path
   fill="#633D98"
   d="M71.689,1.04c2,0.24,3.97,0.56,5.87,0.97c-20.32,5.67-36.82,20.68-44.37,40.49v0.01v0.01      c-0.34,0.84-0.63,1.63-0.87,2.41c0,0.01-0.01,0.01-0.01,0.02l-0.14,0.43c-0.09,0.25-0.17,0.51-0.25,0.77      c-0.01,0.01-0.01,0.02-0.01,0.03l-0.36,1.22h-0.02c-0.06,0.19-0.11,0.39-0.17,0.59c-1.03-4.68-1.55-9.48-1.55-14.29      c0-3.77,0.34-7.61,1.01-11.43C41.449,10.49,55.949,2.95,71.689,1.04z"
   id="path3513" />
				<path
   fill="#4E4B9F"
   d="M63.729,0.54c1.22,0,2.48,0.04,3.78,0.12c-13.87,2.56-26.6,9.47-36.35,19.76      c0.95-4.66,2.41-9.2,4.35-13.53C44.349,2.68,53.839,0.54,63.729,0.54z"
   id="path3515" />
				<path
   fill="#E68A5C"
   d="M67.509,99.34c-1.31,0.08-2.56,0.12-3.78,0.12c-9.87,0-19.37-2.14-28.22-6.36      c-1.93-4.318-3.39-8.858-4.35-13.52C40.929,89.88,53.659,96.79,67.509,99.34z"
   id="path3517" />
				<path
   fill="#BDC3C7"
   d="M63.379,31.64c0.06-0.03,0.11-0.06,0.17-0.09c-4.77,4.45-7.9,10.97-8.97,18.88l-0.01,0.05h-0.02      c-0.22,1.56-0.34,3.19-0.38,4.95c0,0.012,0,0.021,0,0.03c-0.02,0.45-0.02,0.91-0.02,1.36c0,0,0,0,0,0.01      c-0.08,10.99,3.22,23.09,9.33,34.24c-12.34-6.9-22.25-17.721-28.01-30.65c3.15-5.42,6.81-10.45,10.88-14.94      c0.01-0.02,0.02-0.03,0.03-0.05c0,0,0,0,0.01,0c1.23-1.36,2.53-2.69,3.86-3.97c0.37-0.35,0.75-0.7,1.11-1.04      c0.02-0.01,0.03-0.02,0.04-0.03c1.02-0.92,2.01-1.79,2.96-2.57l0.07-0.06c0.49-0.39,0.96-0.77,1.45-1.14      c0.45-0.35,0.9-0.69,1.35-1.02c0.01-0.01,0.02-0.01,0.02-0.02c0.05-0.04,0.11-0.08,0.17-0.13l1.12-0.78      c0.07-0.05,0.13-0.09,0.19-0.14c0.62-0.43,1.24-0.84,1.85-1.23c0.49-0.31,0.98-0.61,1.47-0.9      C62.499,32.14,62.929,31.88,63.379,31.64z"
   id="path3519" />
				<path
   fill="#5A5B5B"
   d="M33.239,45.31l-0.12,0.38c-0.09,0.25-0.16,0.5-0.24,0.75C32.989,46.07,33.099,45.7,33.239,45.31z"
   id="path3521" />
				<path
   fill="#5A5B5B"
   d="M33.189,42.52c-0.3,0.8-0.59,1.6-0.87,2.41C32.559,44.15,32.849,43.36,33.189,42.52z"
   id="path3523" />
				<path
   fill="#EB664F"
   d="M29.879,78.18c0.88,4.891,2.3,9.67,4.24,14.221c-7.24-3.641-13.71-8.569-19.23-14.68      c-0.68-3.871-1.01-7.609-1.01-11.421c0-4.8,0.52-9.579,1.56-14.26C18.189,61.67,23.159,70.66,29.879,78.18z"
   id="path3525" />
				<path
   fill="#963A71"
   d="M34.119,7.59c-1.94,4.56-3.37,9.34-4.24,14.23c-6.72,7.51-11.69,16.51-14.44,26.14      c-1.04-4.69-1.56-9.48-1.56-14.28c0-3.75,0.34-7.59,1.01-11.41C20.389,16.18,26.859,11.25,34.119,7.59z"
   id="path3527" />
				<path
   fill="#E34461"
   d="M28.809,33.7c0,5.5,0.67,10.99,2,16.3c-1.33,5.3-2,10.779-2,16.3c0,3.341,0.25,6.63,0.76,10.011      C23.079,68.691,18.379,59.63,15.919,50c2.46-9.64,7.16-18.7,13.65-26.31C29.059,27.04,28.809,30.4,28.809,33.7z"
   id="path3529" />
				<path
   fill="#E6425A"
   d="M12.879,33.68c0,5.49,0.67,10.99,2.01,16.32c-1.34,5.32-2.01,10.811-2.01,16.3      c0,3.341,0.25,6.63,0.76,10C7.159,68.68,2.459,59.63-0.001,50c2.46-9.63,7.16-18.69,13.64-26.31      C13.129,27.04,12.879,30.39,12.879,33.68z"
   id="path3531" />
			</g>
		</g>
	</g>
</g>
</svg>